/* XPM */
static char * carrot64_xpm[] = {
"64 64 258 2",
"  	c #C0D470",
". 	c #A4C263",
"+ 	c #82BD37",
"@ 	c #BFD46F",
"# 	c #70B531",
"$ 	c #78C042",
"% 	c #7FBC33",
"& 	c #8DBE47",
"* 	c #BED36F",
"= 	c #90CD46",
"- 	c #6DB22F",
"; 	c #B8D16B",
"> 	c #6AB22A",
", 	c #76B831",
"' 	c #79B833",
") 	c #64AA23",
"! 	c #BFD36F",
"~ 	c #62AB2C",
"{ 	c #86C03B",
"] 	c #7FBB33",
"^ 	c #69AC2B",
"/ 	c #BDD36E",
"( 	c #6AB332",
"_ 	c #89BE44",
": 	c #7DB935",
"< 	c #67AC29",
"[ 	c #70B22F",
"} 	c #7BB438",
"| 	c #80C039",
"1 	c #78B239",
"2 	c #74B534",
"3 	c #82BB37",
"4 	c #7DBC35",
"5 	c #BBD16C",
"6 	c #BFD470",
"7 	c #9AC154",
"8 	c #73B630",
"9 	c #79B831",
"0 	c #5A9D1B",
"a 	c #74B432",
"b 	c #85B944",
"c 	c #73B52B",
"d 	c #B1CE65",
"e 	c #84B643",
"f 	c #6DAE2F",
"g 	c #69AE2E",
"h 	c #78B931",
"i 	c #79BA35",
"j 	c #72B12F",
"k 	c #8ED045",
"l 	c #64A625",
"m 	c #85B444",
"n 	c #A6C55E",
"o 	c #6DA92E",
"p 	c #6AB125",
"q 	c #ACC962",
"r 	c #69AB28",
"s 	c #68AB29",
"t 	c #6FB230",
"u 	c #87BA45",
"v 	c #91B753",
"w 	c #7EBC3A",
"x 	c #69AC2D",
"y 	c #8AC740",
"z 	c #93BB54",
"A 	c #91BA53",
"B 	c #FC9D06",
"C 	c #FB9C00",
"D 	c #C0D36F",
"E 	c #70AB2B",
"F 	c #5BA01E",
"G 	c #69AB2A",
"H 	c #6DAE2E",
"I 	c #6BA92E",
"J 	c #76B633",
"K 	c #89C43A",
"L 	c #97D248",
"M 	c #77BC30",
"N 	c #76B332",
"O 	c #6AB02E",
"P 	c #68AB2C",
"Q 	c #66A829",
"R 	c #FEAB06",
"S 	c #FFC003",
"T 	c #FECE01",
"U 	c #FED000",
"V 	c #FCC100",
"W 	c #F8A300",
"X 	c #AD930D",
"Y 	c #52931B",
"Z 	c #5FA227",
"` 	c #8AB94B",
" .	c #6DAF28",
"..	c #7BBA32",
"+.	c #6EB12D",
"@.	c #FEBB09",
"#.	c #FFD103",
"$.	c #FFD702",
"%.	c #FDD500",
"&.	c #FFD601",
"*.	c #FFCA05",
"=.	c #FFAE04",
"-.	c #FF8E02",
";.	c #7C840E",
">.	c #5A9B25",
",.	c #5A9D24",
"'.	c #FFAD01",
").	c #FFD003",
"!.	c #FFD903",
"~.	c #FEDC00",
"{.	c #FDDB00",
"].	c #FFD505",
"^.	c #FFC506",
"/.	c #FA9900",
"(.	c #FF8707",
"_.	c #FC5B06",
":.	c #FDBF00",
"<.	c #FFD100",
"[.	c #FFDD00",
"}.	c #FDDD00",
"|.	c #FFD701",
"1.	c #FFC901",
"2.	c #FDA005",
"3.	c #FE9A00",
"4.	c #FA6900",
"5.	c #FF5303",
"6.	c #FCBE00",
"7.	c #FFD402",
"8.	c #FFDF00",
"9.	c #FFDE01",
"0.	c #FFD502",
"a.	c #FEB201",
"b.	c #FEA202",
"c.	c #F76100",
"d.	c #FF6701",
"e.	c #FF4502",
"f.	c #C3D06E",
"g.	c #F8AE1E",
"h.	c #FFCC02",
"i.	c #FFD800",
"j.	c #FCDE00",
"k.	c #FACF00",
"l.	c #FFC801",
"m.	c #FFB400",
"n.	c #F88900",
"o.	c #FF8902",
"p.	c #FF7002",
"q.	c #FF5703",
"r.	c #F71700",
"s.	c #C1D36F",
"t.	c #FECA00",
"u.	c #FFDF03",
"v.	c #FFE101",
"w.	c #FFD802",
"x.	c #FDCC02",
"y.	c #F6A100",
"z.	c #FFA102",
"A.	c #FF9000",
"B.	c #FC6A00",
"C.	c #F94800",
"D.	c #FF4D05",
"E.	c #D6B45E",
"F.	c #FBB102",
"G.	c #FFDA01",
"H.	c #FFE001",
"I.	c #FFDB00",
"J.	c #FFCC00",
"K.	c #FBAA00",
"L.	c #FFA404",
"M.	c #FE8F00",
"N.	c #FD7B01",
"O.	c #FF5C00",
"P.	c #FF470D",
"Q.	c #D4B65D",
"R.	c #C2D36F",
"S.	c #FEC300",
"T.	c #FFDE04",
"U.	c #FFCE02",
"V.	c #FFB103",
"W.	c #FFA104",
"X.	c #F87E00",
"Y.	c #FF7801",
"Z.	c #F21E00",
"`.	c #FE550F",
" +	c #C1D370",
".+	c #FEBA00",
"++	c #FDDC01",
"@+	c #FFD301",
"#+	c #FEC800",
"$+	c #FCB000",
"%+	c #FF9D03",
"&+	c #FC8F02",
"*+	c #FF7A03",
"=+	c #FF6702",
"-+	c #FC1300",
";+	c #FFAD03",
">+	c #FFC603",
",+	c #FFD700",
"'+	c #FFCC04",
")+	c #FFBB03",
"!+	c #FCA500",
"~+	c #FF9A04",
"{+	c #FF7A00",
"]+	c #F95600",
"^+	c #FE6804",
"/+	c #DEAA54",
"(+	c #FFC607",
"_+	c #FFD106",
":+	c #FFD001",
"<+	c #FDCD00",
"[+	c #FDA602",
"}+	c #FFA001",
"|+	c #FF8904",
"1+	c #FC8200",
"2+	c #FE6900",
"3+	c #FE6808",
"4+	c #FFBC02",
"5+	c #FFCB03",
"6+	c #FFCD00",
"7+	c #FFC101",
"8+	c #FFAE00",
"9+	c #FF9400",
"0+	c #FF8101",
"a+	c #FF6E00",
"b+	c #FF6903",
"c+	c #D7B85C",
"d+	c #C0D471",
"e+	c #FEA804",
"f+	c #FFBB00",
"g+	c #FAB300",
"h+	c #FFBA03",
"i+	c #FFA902",
"j+	c #F67000",
"k+	c #FF7A04",
"l+	c #FE6E02",
"m+	c #FF6407",
"n+	c #FFAA01",
"o+	c #FFB600",
"p+	c #FFB100",
"q+	c #FA8500",
"r+	c #FF8705",
"s+	c #FF6C01",
"t+	c #E99D48",
"u+	c #E8EEAA",
"v+	c #FF930C",
"w+	c #FDA300",
"x+	c #FF9D01",
"y+	c #FF9606",
"z+	c #FF8402",
"A+	c #FF7104",
"B+	c #FC6900",
"C+	c #FF7E00",
"D+	c #FF7E08",
"E+	c #FF7E01",
"F+	c #F84802",
"G+	c #E7A24B",
"H+	c #FE6F06",
"I+	c #FF6803",
"                                                                                                                                ",
"                                                                                                                                ",
"                                                                                                                                ",
"                                                                                                                                ",
"                                                                        . .     . .                                             ",
"                                                                        . .     . .                                             ",
"                                    . .     . .                             . .                                                 ",
"                                    . .     . .                             . .                                                 ",
"                                        . .                                                                                     ",
"                                        . .                                                                                     ",
"                                                                                                                                ",
"                                                                                                                                ",
"                                                                                                                                ",
"                                                                                                                                ",
"                                                                                                                                ",
"                                                                                                                                ",
"                                                                                                                                ",
"                                                                                                                                ",
"                                                                                    + @                 . .     . .             ",
"                                                                                @ #   $                 . .     . .             ",
"            . .     . .                                                     % & * = - ;   @                 . .                 ",
"            . .     . .                                                     > , ' ) !   ~                   . .                 ",
"                . .                                                         { ] ^ / ( _ : <                                     ",
"                . .                                                     [ } |   1 2 3 4 5                                       ",
"                                                                    6 7 8 9 0 a b c d e                                         ",
"                                                                    f g h i j k l m   n o                                       ",
"                                                                    p q r s t u v w x y z A                                     ",
"                                                              B C D E F G H I J K L M N O P Q                                   ",
"                                                          R S T U V W X Y Y Z `  ...+..                                         ",
"                                                        @.#.$.%.&.*.=.-.;.>.,.      . .                                         ",
"                                                      '.).!.~.{.].^./.(._.!                                                     ",
"                                                    :.<.[.[.}.|.1.2.3.4.5.                                                      ",
"                                                  6.7.8.9.~.0.:.a.b.c.d.e.f.                                                    ",
"                                                g.h.i.j.[.k.l.m.n.o.p.q.r.s.                                                    ",
"                                                t.u.v.v.w.x.y.z.A.B.C.D.E.                                                      ",
"                                            s.F.G.H.u.I.J.K.L.M.N.O.P.Q.                                                        ",
"                                          R.S.$.T.8.i.U.V.W.X.Y.Z.`. +                                                          ",
"                                          .+#.++[.@+#+$+%+&+*+=+-+                                                              ",
"                                        ;+>+,+|.'+)+!+~+{+]+^+/+                                                                ",
"                                        (+_+:+<+[+}+|+1+2+3+s.                                                                  ",
"                                    s.4+5+6+7+8+9+0+a+b+c+ +                                                                    ",
"                                d+  e+f+g+h+i+j+k+l+m+                                                                          ",
"                                d+  n+o+p+q+r+{+s+t+ +                                  u+u+    u+u+                            ",
"                                d+v+w+x+y+z+A+B+s. +                                    u+u+    u+u+                            ",
"                                  C+D+E+F+G+ + +                                            u+u+                                ",
"                                  H+I+                                                      u+u+                                ",
"                                d+d+d+d+d+d+d+d+                                                                                ",
"                                  d+d+d+d+                                                                                      ",
"                                                                                                                                ",
"                                                                                                                                ",
"                                                                                                                                ",
"                                                                                                                                ",
"                u+u+    u+u+                                                                                                    ",
"                u+u+    u+u+                                                                                                    ",
"                    u+u+                                                                                                        ",
"                    u+u+                                                                                                        ",
"                                                                                                                                ",
"                                                                                                                                ",
"                                                                                                                                ",
"                                                                                                                                ",
"                                                                                                                                ",
"                                                                                                                                ",
"                                                                                                                                ",
"                                                                                                                                "};
