/* XPM */
static char * collectible_xpm[] = {
"64 64 412 2",
"  	c #336547",
". 	c #579945",
"+ 	c #182C3B",
"@ 	c #204042",
"# 	c #275348",
"$ 	c #A2C758",
"% 	c #254041",
"& 	c #675852",
"* 	c #AB9B94",
"= 	c #7D665B",
"- 	c #9B8F8B",
"; 	c #5C4235",
"> 	c #1F2D3A",
", 	c #65483A",
"' 	c #977767",
") 	c #8D6752",
"! 	c #8F6B57",
"~ 	c #8C6752",
"{ 	c #4D3933",
"] 	c #573E32",
"^ 	c #795847",
"/ 	c #815F4C",
"( 	c #8B6651",
"_ 	c #87634F",
": 	c #674C3E",
"< 	c #62512A",
"[ 	c #4B3D32",
"} 	c #574136",
"| 	c #63493C",
"1 	c #594237",
"2 	c #584033",
"3 	c #B0B608",
"4 	c #8F8D1C",
"5 	c #2A2E37",
"6 	c #2C3F3F",
"7 	c #72641A",
"8 	c #685624",
"9 	c #634E29",
"0 	c #5A3F2F",
"a 	c #766A18",
"b 	c #909207",
"c 	c #A9B202",
"d 	c #BDBC8B",
"e 	c #8E7A1D",
"f 	c #D1B817",
"g 	c #CA9120",
"h 	c #8B6133",
"i 	c #A1A312",
"j 	c #847D12",
"k 	c #AEB603",
"l 	c #8A840C",
"m 	c #9A990A",
"n 	c #A9A80A",
"o 	c #928E0B",
"p 	c #B0BA01",
"q 	c #C8B309",
"r 	c #FFE200",
"s 	c #FFDB00",
"t 	c #FFA500",
"u 	c #B47629",
"v 	c #1D2C3A",
"w 	c #AAAC11",
"x 	c #797322",
"y 	c #A1A115",
"z 	c #A8A90A",
"A 	c #B4B707",
"B 	c #B3B507",
"C 	c #9E990C",
"D 	c #A28F0C",
"E 	c #F3D603",
"F 	c #FFC500",
"G 	c #FFA200",
"H 	c #A2692D",
"I 	c #7C6C2C",
"J 	c #C8B209",
"K 	c #DEBF06",
"L 	c #927F0E",
"M 	c #ABA40B",
"N 	c #A09E0C",
"O 	c #A4960C",
"P 	c #B09A0C",
"Q 	c #D7BB08",
"R 	c #FFDE00",
"S 	c #FFA300",
"T 	c #F69C07",
"U 	c #423838",
"V 	c #C5AC17",
"W 	c #F7C601",
"X 	c #E9D153",
"Y 	c #E8CB05",
"Z 	c #EACF39",
"` 	c #D6BE51",
" .	c #E4C805",
"..	c #E1C506",
"+.	c #F0D303",
"@.	c #FFB200",
"#.	c #B47426",
"$.	c #332F35",
"%.	c #F0D644",
"&.	c #EAA104",
"*.	c #F4E29A",
"=.	c #D4B808",
"-.	c #FFEB8F",
";.	c #DDCC8D",
">.	c #D2B608",
",.	c #FFC300",
"'.	c #EF9708",
").	c #222D39",
"!.	c #1A2C3B",
"~.	c #AC9B5F",
"{.	c #FFE554",
"].	c #FFD000",
"^.	c #D78E07",
"/.	c #FFE86F",
"(.	c #DDC107",
"_.	c #FFEA81",
":.	c #D6C176",
"<.	c #D7BB07",
"[.	c #ECDB99",
"}.	c #ECD004",
"|.	c #FFCC00",
"1.	c #775030",
"2.	c #927E25",
"3.	c #FBE99D",
"4.	c #FFE000",
"5.	c #FFAC00",
"6.	c #D4AA08",
"7.	c #FFE43D",
"8.	c #DCC00E",
"9.	c #D4A408",
"0.	c #FFE76F",
"a.	c #D6BB08",
"b.	c #FFCE00",
"c.	c #B17123",
"d.	c #493C31",
"e.	c #BBA43E",
"f.	c #FBEBA5",
"g.	c #FFE243",
"h.	c #FFB400",
"i.	c #D89307",
"j.	c #F8DC1D",
"k.	c #FBDE01",
"l.	c #DABE07",
"m.	c #DBBF07",
"n.	c #D38608",
"o.	c #FFD600",
"p.	c #CF8419",
"q.	c #192C3B",
"r.	c #1C2C3A",
"s.	c #312F36",
"t.	c #383033",
"u.	c #6D5B2B",
"v.	c #8D7826",
"w.	c #AD951E",
"x.	c #CCB010",
"y.	c #F6D902",
"z.	c #FFE556",
"A.	c #FFD800",
"B.	c #FFB000",
"C.	c #D88C08",
"D.	c #E8D064",
"E.	c #FFE445",
"F.	c #D7BC08",
"G.	c #FBE158",
"H.	c #DEC206",
"I.	c #F8DB02",
"J.	c #FFC700",
"K.	c #D88D07",
"L.	c #DCC006",
"M.	c #FFD700",
"N.	c #DC8B09",
"O.	c #6C4B39",
"P.	c #9C8017",
"Q.	c #D5BA08",
"R.	c #EACD04",
"S.	c #F3DF84",
"T.	c #FFEC95",
"U.	c #FFED9B",
"V.	c #FFE878",
"W.	c #FFDF30",
"X.	c #FFB800",
"Y.	c #FEA200",
"Z.	c #D49108",
"`.	c #EAD890",
" +	c #FFE76C",
".+	c #F6D802",
"++	c #D9C67E",
"@+	c #FFE665",
"#+	c #D3BE71",
"$+	c #FFE663",
"%+	c #D59D08",
"&+	c #D5B908",
"*+	c #E89304",
"=+	c #694731",
"-+	c #BC8715",
";+	c #FFBF00",
">+	c #FFBA01",
",+	c #FFB100",
"'+	c #FFAA00",
")+	c #E28F06",
"!+	c #CDA748",
"~+	c #F8E8A4",
"{+	c #FFE660",
"]+	c #FFDD00",
"^+	c #CDA80A",
"/+	c #FFEC92",
"(+	c #EECD04",
"_+	c #E6D69A",
":+	c #FFD100",
"<+	c #D4B770",
"[+	c #FFE65A",
"}+	c #DABD08",
"|+	c #FFCD00",
"1+	c #E08E06",
"2+	c #214042",
"3+	c #544535",
"4+	c #BE7817",
"5+	c #F79D02",
"6+	c #EC9604",
"7+	c #CF9009",
"8+	c #D1B149",
"9+	c #FFE43F",
"0+	c #D79C08",
"a+	c #F4D830",
"b+	c #FFDD38",
"c+	c #CDA30A",
"d+	c #FFE65D",
"e+	c #E69205",
"f+	c #EEDEA0",
"g+	c #D3A408",
"h+	c #D08515",
"i+	c #574639",
"j+	c #896D17",
"k+	c #AD830D",
"l+	c #BF920C",
"m+	c #D1B048",
"n+	c #E5D59F",
"o+	c #FFEB92",
"p+	c #FFE32E",
"q+	c #FFBE00",
"r+	c #D78C08",
"s+	c #E7CB05",
"t+	c #FFDF00",
"u+	c #DE9D06",
"v+	c #FFD400",
"w+	c #D19B12",
"x+	c #FFE97D",
"y+	c #D4A808",
"z+	c #FFB600",
"A+	c #B9761E",
"B+	c #5D443B",
"C+	c #73523F",
"D+	c #D0AD0F",
"E+	c #FFD703",
"F+	c #FFD500",
"G+	c #FFC800",
"H+	c #D4902C",
"I+	c #E6D48C",
"J+	c #F2AD03",
"K+	c #D8B907",
"L+	c #EA9404",
"M+	c #E6CC3D",
"N+	c #F9A201",
"O+	c #D9BD07",
"P+	c #FFA600",
"Q+	c #8D5B29",
"R+	c #483835",
"S+	c #6C4933",
"T+	c #CC810D",
"U+	c #F29A03",
"V+	c #C9A052",
"W+	c #F5E398",
"X+	c #FFE138",
"Y+	c #F3AD02",
"Z+	c #C9A84D",
"`+	c #FFC900",
" @	c #FCA000",
".@	c #CBA10A",
"+@	c #D88B07",
"@@	c #F8DB01",
"#@	c #373033",
"$@	c #564534",
"%@	c #B9761B",
"&@	c #F39A02",
"*@	c #FB9F01",
"=@	c #D48C08",
"-@	c #D7B907",
";@	c #F4A902",
">@	c #C8AD7C",
",@	c #FFE980",
"'@	c #FFDA00",
")@	c #C98C0A",
"!@	c #FADE22",
"~@	c #CFA409",
"{@	c #CF8413",
"]@	c #54382B",
"^@	c #A57711",
"/@	c #C0940B",
"(@	c #D5B408",
"_@	c #FADD01",
":@	c #FBA201",
"<@	c #CCA221",
"[@	c #FFE76A",
"}@	c #FFAD00",
"|@	c #D69008",
"1@	c #F3E192",
"2@	c #FFE336",
"3@	c #FFAF00",
"4@	c #E08D06",
"5@	c #EED44A",
"6@	c #FFB300",
"7@	c #855B2E",
"8@	c #4B3D3C",
"9@	c #815B46",
"0@	c #A28723",
"a@	c #FFA700",
"b@	c #CB9F0A",
"c@	c #FCDF01",
"d@	c #FFDC00",
"e@	c #E39005",
"f@	c #E4D28F",
"g@	c #FFE76B",
"h@	c #CCA650",
"i@	c #FFEA8B",
"j@	c #E59105",
"k@	c #2F3F3E",
"l@	c #3D3F3B",
"m@	c #855E49",
"n@	c #714A27",
"o@	c #DD8C06",
"p@	c #D0AC09",
"q@	c #FFD200",
"r@	c #F39A03",
"s@	c #D3B65F",
"t@	c #FFE97E",
"u@	c #E49105",
"v@	c #EDDEA2",
"w@	c #FFC200",
"x@	c #936229",
"y@	c #413230",
"z@	c #6D4628",
"A@	c #C77E11",
"B@	c #DD8C10",
"C@	c #B4890D",
"D@	c #EFD303",
"E@	c #FFBD00",
"F@	c #C8A42C",
"G@	c #FFE879",
"H@	c #C79B52",
"I@	c #FFE97F",
"J@	c #DE8C0A",
"K@	c #2C2E37",
"L@	c #2B303A",
"M@	c #835B45",
"N@	c #6B4D32",
"O@	c #F3B202",
"P@	c #CBA40A",
"Q@	c #E18E06",
"R@	c #ECD883",
"S@	c #FA9F01",
"T@	c #724B2B",
"U@	c #7B5743",
"V@	c #6D4D3B",
"W@	c #BF780B",
"X@	c #EF9803",
"Y@	c #DB8E07",
"Z@	c #D4B508",
"`@	c #FDA100",
" #	c #CBA523",
".#	c #FFE447",
"+#	c #A66A1E",
"@#	c #1B2C3B",
"##	c #342F35",
"$#	c #3B3032",
"%#	c #322F35",
"&#	c #634734",
"*#	c #8C6D28",
"=#	c #F9DC01",
"-#	c #C98B0A",
";#	c #FFAE00",
">#	c #C67E14",
",#	c #292E38",
"'#	c #865E47",
")#	c #5D4335",
"!#	c #AE8319",
"~#	c #FFA900",
"{#	c #F09803",
"]#	c #DB8B07",
"^#	c #B97C0D",
"/#	c #F2D603",
"(#	c #FFE100",
"_#	c #CA8114",
":#	c #343F3C",
"<#	c #5B433A",
"[#	c #79533F",
"}#	c #6B4627",
"|#	c #5F412D",
"1#	c #362F34",
"2#	c #42413B",
"3#	c #77543A",
"4#	c #B99F15",
"5#	c #906029",
"6#	c #5C4E44",
"7#	c #7B5742",
"8#	c #5E4333",
"9#	c #B37010",
"0#	c #83592B",
"a#	c #303F3D",
"b#	c #283F40",
"c#	c #6D543E",
"d#	c #63503C",
"e#	c #2B3F3F",
"  . . .   .     . .   . .   .           . .     . .   . .   .           . .     . .   . .   .           . .         .   . . .   ",
". . .         . . .   . . .     . . .   . . .   . .   . . .     . . .   . . .   . .   . . .     . . .   . . .   .     .   . . . ",
". .   .     . . .       . .   . . .       . .   .       . .   . . .       . .   .       . .   . . .       . .   . .   . .   . . ",
".     . .   . .           .   . .           .             .   . .           .             .   . .           .   . .   . .       ",
". .     .   .   +       + + + .     +     +     +       + + + .     +     +     +       + + + .     +     +       .     .       ",
". . .   +   + @ @ +   + @ @ @ +   + @   + @   + @ +   + @ @ @ +   + @   + @   + @ +   + @ @ @ +   + @   + @   + @ +   +   . . . ",
". . . + @ @ @ @ @ @ @ @ @ @ @ @ @ @ @ @ @ @ @ @ @ @ @ @ @ @ @ @ @ @ @ @ @ @ @ @ @ @ @ @ @ @ @ @ @ @ @ @ @ @ @ @ @ @ @ @ + . . . ",
"  . . . + @ # @ @ @ @ # # @ @ @ @ @ @ # # # @ @ @ @ @ # # @ @ @ @ @ @ # # # @ @ @ @ # # @ @ @ @ @ @ @ # # @ @ @ @ # @ + . . .   ",
"$     + @ @ @ @ @ @ # # # @ # # # @ @ # # # @ @ @ @ # # # @ # # # @ @ # # # @ @ @ @ # # # @ @ # # # @ # # # @ @ @ @ @ @ +     $ ",
". . + @ @ @ @ @ @ @ # # # @ # # # @ @ # # @ @ # # @ # # # @ # # # @ @ # # @ @ # # @ @ # # @ @ # # # @ # # # @ @ @ @ @ @ @ + . . ",
". . . + @ # # @ # @ # # @ @ @ # # @ @ @ @ @ # # # @ # # @ @ @ # # @ @ @ @ @ # # # @ @ @ @ @ @ # # @ @ @ # # @ # @ @ @ @ + . . . ",
"    + @ @ # # @ @ @ @ @ @ @ @ @ @ @ # # @ @ # # @ @ @ @ @ @ @ @ @ @ # # @ @ # # @ @ @ # # # @ @ @ @ @ @ @ @ @ @ @ @ @ @ @ +     ",
"  . . . + @ @ @ @ @ @ @ @ # # @ @ @ # # @ @ @ @ @ @ @ @ @ @ @ @ @ @ # # @ @ @ @ @ @ # # # # @ @ @ # # @ @ @ @ @ # # @ + . . .   ",
". . . + @ @ @ @ @ # # # @ # # @ @ @ @ @ @ @ @ @ @ @ @ @ @ @ @ + @ @ @ @ @ @ @ @ @ @ # # # @ @ @ @ # # @ # # # @ # # @ @ + . . . ",
". . + @ @ # # @ @ # # # @ @ + + + + + @ @ + @ @ + @ @ + + + + + + @ @ + @ @ @ @ @ @ + @ @ + + @ @ @ @ @ # # # @ @ @ @ @ @ + . . ",
"      + @ # # # @ # # @ @ @ @ @ + @ @ + + + @ @ + + + + @ @ @ + + + + + + @ @ + + + + + + + + + @ @ @ @ @ # # @ @ @ @ @ +       ",
"        + @ # # @ @ @ @ @ @ @ @ + @ @ @ + + + + + + + + @ @ % & * = - ; > + + + + + + + @ @ + + @ @ @ @ @ @ @ @ @ @ @ +         ",
". . + @ @ @ @ @ # # # @ @ @ @ + + @ @ @ + + + + + + + + @ @ , ' ) ) ! ~ { @ @ + @ + + + @ @ + + + @ @ @ @ # # # @ # # @ @ + . . ",
". . . + @ @ @ @ # # # # @ @ @ @ + + + + + + + + @ @ @ + + + ] ^ / ( _ : < % @ + + + + + + + + + @ @ @ @ # # # # @ # # @ + . . . ",
"  . . . + @ @ @ @ # # # @ @ @ @ @ + + + @ @ @ + @ @ @ + + @ [ } } | 1 2 3 4 5 + + @ @ + + + + @ @ @ @ @ # # # @ @ @ @ + . . .   ",
"    + @ @ @ # # @ @ @ @ @ @ @ @ @ + + + @ @ @ + + @ @ + + @ 6 7 8 9 0 a b c d e f g h @ + + + @ @ @ @ @ @ @ @ @ # # @ @ @ +     ",
". .   + @ @ # # @ @ # # @ @ @ + + + + + @ @ + + + + + + + + + i j k l m n o p q r s t u + + + + + @ @ @ # # @ @ # # @ @ +   . . ",
". . . + @ @ @ @ @ @ # # # @ @ @ @ + + + + + + + + + + + + + v w x y z A B C D E r r F G H + + @ @ @ @ # # # @ @ @ @ @ @ + . . . ",
"  . . . + @ # @ @ @ @ # # @ @ @ @ @ + @ @ @ + + + + + + + + I J K L M N O P Q r r r R S T U @ @ @ @ @ # # @ @ @ @ # @ + . . .   ",
"$     + @ @ @ @ # # @ @ @ @ @ @ @ @ + @ @ @ + + + + + + + + V r W X Y Z `  ...+.r r r @.G #.@ @ @ @ @ @ @ @ # # @ @ @ @ +     $ ",
". . + @ @ @ @ @ # # # @ @ @ @ @ @ + + + + + + + + + + + + $.%.r &.*.=.-.;.r Q >.r r r ,.G '.).@ @ @ @ @ @ # # # @ @ @ @ @ + . . ",
". . . + @ # # @ # # # @ # # @ + + + + + + + @ + + + + + !.~.{.].^./.(._.:.r <.[.}.r r |.G G 1.+ + @ # # @ # # # @ @ @ @ + . . . ",
"    + @ @ # # @ @ @ @ @ # # @ @ @ + + @ @ + + + + + + > 2.3.4.5.6.r <.7.8.r 9.0.a.r r b.G G c.@ @ @ # # @ @ @ @ @ @ @ @ @ +     ",
"  . . . + @ @ @ @ @ @ @ @ @ @ @ @ + + @ @ + + + + !.d.e.f.g.h.i.j.k.l.k.m.R n.r Q r r o.G G p.@ @ @ @ @ @ @ @ @ # # @ + . . .   ",
". . . + @ @ @ @ @ # # # @ @ @ @ + + q.r.s.t.u.v.w.x.y.z.A.B.C.D.E.F.G.H.I.J.K.r L.r r M.G G N.+ @ @ @ @ # # # @ # # @ @ + . . . ",
". . + @ @ # # @ @ # # # @ @ + + + O.P.Q.R.S.T.U.V.W.].X.Y.Z.`. +.+++@+#+$+5.%+r &+r r M.G G *++ + + @ @ # # # @ @ @ @ @ @ + . . ",
"      + @ # # # @ # # @ @ @ @ @ + =+-+;+;+;+>+,+'+G G )+!+~+{+]+^+/+(+_+:+G <+[+}+r r |+G G 1++ @ @ @ @ @ # # @ @ @ @ @ +       ",
"        + @ # # @ @ @ @ @ @ @ @ + 2+3+4+5+G G G 6+7+8++.9+r M.0+a+b+c+d+h.e+f+4.g+r r ,.G G h++ @ @ @ @ @ @ @ @ @ @ @ +         ",
". . + @ @ @ @ @ # # # @ @ @ @ + + @ % i+j+k+l+m+n+o+p+r s q+r+s+t+u++.v+G w+x+J.y+r r z+G G A++ + @ @ @ @ # # # @ # # @ @ + . . ",
". . . + @ @ @ @ # # # # @ @ @ @ + + B+C+D+M.M.E+M.F+G+z+G H+I+4.J+K+r B.L+M+R N+O+r r P+G G Q++ @ @ @ @ # # # # @ # # @ + . . . ",
"  . . . + @ @ @ @ # # # @ @ @ @ @ + R+S+T+G G G G G G U+V+W+X+Y+Z+r `+ @.@r q++@@@r M.G G 5+#@@ @ @ @ @ # # # @ @ @ @ + . . .   ",
"    + @ @ @ # # @ @ @ @ @ @ @ @ @ + + v $@%@&@G G *@=@-@p+s ;@>@,@'@t )@!@o.G ~@r r J.G G {@q.@ @ @ @ @ @ @ @ @ # # @ @ @ +     ",
". .   + @ @ # # @ @ # # @ @ @ + + + + + @ @ ]@^@/@(@_@4.J.:@<@[@t+}@|@1@2@3@4@5@r r 6@G G 7@+ + + @ @ @ # # @ @ # # @ @ +   . . ",
". . . + @ @ @ @ @ @ # # @ @ @ + + + + + + 8@9@0@R :+;+a@&@b@c@d@@.e@f@g@`+G h@i@r s G G j@k@+ + + @ @ @ # # @ @ @ @ @ @ + . . . ",
"  . . . + @ # @ @ @ @ @ @ @ @ @ @ + + @ @ l@m@n@G G G o@p@r q@'+r@s@t@R a@u@v@r r w@G G x@@ + @ @ @ @ @ @ @ @ @ @ # @ + . . .   ",
"$     + @ @ @ @ @ # # # @ @ @ @ @ + + @ @ % y@z@A@B@C@D@s E@G &@F@G@r q+G H@I@r R P+G J@K@+ + @ @ @ @ @ # # # @ @ @ @ @ +     $ ",
". . + @ @ @ @ @ # # # # @ @ @ @ + + + + + + + + L@M@N@O@G G r@P@r r o.G Q@R@r r w@G S@T@+ @ @ + @ @ @ @ # # # # @ @ @ @ @ + . . ",
". . . + @ # # @ # # # @ @ @ @ + + @ @ @ + + + + > U@V@W@X@Y@Z@r r d@5.`@ #.#r A.S G +#@#@ @ @ + + @ @ @ @ # # # @ @ @ @ + . . . ",
"    + @ @ # # @ @ @ @ @ @ @ @ @ + @ @ @ + + + + + ##$#%#&#*#=#r b.'+G -#@@r 4.;#G >#,#+ @ @ + + @ @ @ @ @ @ @ @ @ @ @ @ @ +     ",
"  . . . + @ @ @ @ # # @ @ @ @ @ + @ @ + + + @ @ + + + @#'#)#!#~#{#]#^#/#r (#;+G _#:#+ + + + + + @ @ @ @ @ # # @ # # @ + . . .   ",
". . . + @ @ @ @ @ # # # @ @ + + + + + @ @ + @ @ + @ @ + <#[#}#|#1#2#3#4#o.,+)+5#6 @ + @ @ + + + + + @ @ # # # @ # # @ @ + . . . ",
". . + @ @ # # @ @ # # # @ # # @ @ @ @ @ @ @ @ @ @ @ @ @ 2+2+@ + @ 6#7#8#9#0#a#@ @ @ @ @ @ @ @ @ @ # # @ # # # @ @ @ @ @ @ + . . ",
"      + @ # # # @ @ @ @ @ # # @ @ @ # # @ @ @ @ @ @ @ @ @ @ @ @ @ b#c#d#e#@ @ @ @ @ @ @ # # @ @ @ # # @ @ @ @ @ @ @ @ @ +       ",
"        + @ # # @ @ @ @ @ @ @ @ @ @ # # @ @ # # @ @ @ @ @ @ @ @ @ @ # # @ @ # # # # @ @ # # @ @ @ @ @ @ @ @ @ @ @ @ @ +         ",
". . + @ @ @ @ @ @ @ # # @ @ @ # # @ @ @ @ @ # # # @ # # @ @ @ # # @ @ @ @ @ # # # # @ @ @ @ @ # # @ @ @ # # @ @ @ # # @ @ + . . ",
". . . + @ @ @ @ # @ # # # @ # # # @ @ # # @ @ # # @ # # # @ # # # @ @ # # @ @ # # @ @ # # @ @ # # # @ # # # @ # @ # # @ + . . . ",
"  . . . + @ @ @ @ @ # # # @ # # # @ @ # # # @ @ @ @ # # # @ # # # @ @ # # # @ @ @ @ # # # @ @ # # # @ # # # @ @ @ @ @ + . . .   ",
"    + @ @ @ # # # @ @ # # @ @ @ @ @ @ # # # @ @ @ @ @ # # @ @ @ @ @ @ # # # @ @ @ @ # # # @ @ @ @ @ @ # # @ @ @ # # @ @ @ +     ",
". .   + @ @ # # # @ @ @ @ @ @ @ @ @ @ @ @ @ @ @ @ @ @ @ @ @ @ @ @ @ @ @ @ @ @ @ @ @ @ @ @ @ @ @ @ @ @ @ @ @ @ # # # @ @ +   . . ",
". .     + @ @ @ @ @ @ @ @ @ @ @ @ # # @ @ @ # # @ @ @ @ @ @ @ @ @ # # @ @ @ # # @ @ @ @ @ @ @ @ @ # # @ @ @ # # # # @ +     . . ",
". . . + @ @ # # @ # @ @ # # @ @ # # # @ @ @ # # @ # @ @ # # @ @ # # # @ @ @ # # @ # @ @ # # @ @ # # # @ @ @ # # # @ @ @ + . . . ",
"          + # # @ @ @ @ # # @ @ # # @ @ @ @ @ @ @ @ @ @ # # @ @ # # @ @ @ @ @ @ @ @ @ @ # # @ @ # # @ @ @ @ @ @ @ @ +           ",
"$       + @ @ @ + @ @ + @ @ + @ @ @ + @ @ + @ @ + @ @ + @ @ + @ @ @ + @ @ + @ @ + @ @ + @ @ + @ @ @ + @ @ + @ @ @ @ @ +       $ ",
"$ $   + @   @ +   + +   + @   + @ +   @ +   @ +   + +   + @   + @ +   @ +   @ +   + +   + @   + @ +   @ +   @ + + @   @ +   $ $ ",
"            +             +     +     +     +             +     +     +     +             +     +     +     +     +             ",
"        .       . .         . .                 . .         . .                 . .         . .                 . .             ",
"      . .     . . .         . . .             . . .         . . .             . . .         . . .             . . .   .         ",
". .     .     . .     . .     . .             . .     . .     . .             . .     . .     . .             . .     . .   . . ",
".             .     . . .       .     . .     .     . . .       .     . .     .     . . .       .     . .     .       . .     . "};
