/* XPM */
static char * exit_xpm[] = {
"64 64 64 1",
" 	c #336547",
".	c #579945",
"+	c #182C3B",
"@	c #204042",
"#	c #275348",
"$	c #A2C758",
"%	c #C5C8C6",
"&	c #DCDEDA",
"*	c #D6D8D3",
"=	c #E3E7E6",
"-	c #B1B3B1",
";	c #B6BAB8",
">	c #D1D3CE",
",	c #BFC3C1",
"'	c #A9ACAB",
")	c #CACDCB",
"!	c #8E9394",
"~	c #A0A3A4",
"{	c #B9BFBF",
"]	c #AEB6B7",
"^	c #84888A",
"/	c #39424D",
"(	c #353C49",
"_	c #3A414E",
":	c #3E4654",
"<	c #4E5155",
"[	c #616568",
"}	c #29313C",
"|	c #717679",
"1	c #A1ABAE",
"2	c #4D5764",
"3	c #303643",
"4	c #7A7F81",
"5	c #8E99A0",
"6	c #A8B1B4",
"7	c #48515F",
"8	c #28303A",
"9	c #B1BABD",
"0	c #8E9091",
"a	c #9AA5AA",
"b	c #2C3139",
"c	c #3A3C40",
"d	c #44464B",
"e	c #586470",
"f	c #949FA5",
"g	c #828E96",
"h	c #444C56",
"i	c #434C59",
"j	c #77838C",
"k	c #646D74",
"l	c #989B9C",
"m	c #535E6A",
"n	c #747779",
"o	c #5E6975",
"p	c #686F75",
"q	c #585B5F",
"r	c #6A6D71",
"s	c #67737E",
"t	c #717E88",
"u	c #7C8891",
"v	c #6D7983",
"w	c #87939B",
"x	c #636F7A",
"y	c #6A6D70",
" ... .  .. .. .     ..  .. .. .     ..  .. .. .     ..    . ... ",
"...    ... ...  ... ... .. ...  ... ... .. ...  ... ... .  . ...",
".. .  ...   .. ...   .. .   .. ...   .. .   .. ...   .. .. .. ..",
".  .. ..     . ..     .      . ..     .      . ..     . .. ..   ",
"..  . . +   +++.  +  +  +   +++.  +  +  +   +++.  +  +   .  .   ",
"... + +@@+ +@@@+ +@ +@ +@+ +@@@+ +@ +@ +@+ +@@@+ +@ +@ +@+ + ...",
"...+@@@@@@@@@@@@@@@@@@@@@@@@@@@@@@@@@@@@@@@@@@@@@@@@@@@@@@@@+...",
" ...+@#@@@@##@@@@@@###@@@@@##@@@@@@###@@@@##@@@@@@@##@@@@#@+... ",
"$  +@@@@@@###@###@@###@@@@###@###@@###@@@@###@@###@###@@@@@@+  $",
"..+@@@@@@@###@###@@##@@##@###@###@@##@@##@@##@@###@###@@@@@@@+..",
"...+@##@#@##@@@##@@@@@###@##@@@##@@@@@###@@@@@@##@@@##@#@@@@+...",
"  +@@##@@@@@@@@@@@##@@##@@@@@%&&&*&&@@##@@@###@@@@@@@@@@@@@@@+  ",
" ...+@@@@@@@@##@@@##@@@@@@=&&-*&&&&&;>;@@@####@@@##@@@@@##@+... ",
"...+@@@@@###@##@@@@@@@@@%&**&,**&&&*'*>*)@###@@@@##@###@##@@+...",
"..+@@##@@###@@+++++@@+@@!>***;>>***,,>*>,~+@@++@@@@@###@@@@@@+..",
"   +@###@##@@@@@+@@+++%)>-)>){],%))'),))'*>+++++@@@@@##@@@@@+   ",
"    +@##@@@@@@@@+@@@+>'%))'%-^/(/_:<!-,->>)%@@++@@@@@@@@@@@+    ",
"..+@@@@@###@@@@++@@@+,%-;,'[((}}}}}}(_|%%)%%,@+++@@@@###@##@@+..",
"...+@@@@####@@@@++++1~,,%'23}}3(/((333(4,%,;5~++@@@@####@##@+...",
" ...+@@@@###@@@@@++6{%;6'7(8(_(_(///:3}(4{];,;+@@@@@###@@@@+... ",
"  +@@@##@@@@@@@@@++69{,,7(3:___3333:_:_3(0%{,]a@@@@@@@@@##@@@+  ",
".. +@@##@@##@@@++++1]9]~_}:__}bcdcc83_:_3e{99]f++@@@##@@##@@+ ..",
"...+@@@@@@###@@@@+g16]]g(/::b3dd<<dd33hi(:a661f@@@@###@@@@@@+...",
" ...+@#@@@@##@@@@@jf116k(2h3/d44l!4[hc_7i(g11a5@@@@##@@@@#@+... ",
"$  +@@@@##@@@@@@@@!~]1]lme7(<4]l{-l~nh/7on~6]60l@@@@@@##@@@@+  $",
"..+@@@@@###@@@@@@+6];,,)opeqnl{';,~-lr2ep1,,{];5@@@@@###@@@@@+..",
"...+@##@###@##@+++f6;;6;2st|0~{~';';~0puv!]6;9au+@##@###@@@@+...",
"  +@@##@@@@@##@@@+ga16]97tw4l'{l6~~-'l0wv!;]665v@@##@@@@@@@@@+  ",
" ...+@@@@@@@@@@@@+vjugwg7jw4l~,~''~-'^^wj|!wgujm@@@@@@@@##@+... ",
"...+@@@@@###@@@@+++_:h:(_gl^l~;%{%,-'0^5u3:hh:(+@@@@###@##@@+...",
"..+@@##@@###@@+++++s5aake5fl~~;-~~-,~~lf5:^f1fs+++@@###@@@@@@+..",
"   +@###@##@@@@@+@@9,{;!ewfl~-~'~'-''llfg2],,%l+@@@@@##@@@@@+   ",
"    +@##@@@@@@@@+@@1];]^sffl'~l~-'~~~'!l626{;]f+@@@@@@@@@@@+    ",
"..+@@@@@###@@@@++@@a6];^owfl~!~l'~~l!'l5571{]6w++@@@@###@##@@+..",
"...+@@@@####@@@@+++5!]'jx55g!^l0!l!l^!^5f2~66~0+@@@@####@##@+...",
" ...+@@@@###@@@@@++a66]jsw5|^<!l^^l4y^45f2']695@@@@@###@@@@+... ",
"  +@@@##@@@@@@@@@++5a11tsw5n0^nr44[^!^4552f161u@@@@@@@@@##@@@+  ",
".. +@@##@@##@@@++++g55fvkuf|4^l^000l!4p5g2wfa5u++@@@##@@##@@+ ..",
"...+@@@@@@##@@@++++ugg5sogwp44l^fa^l!n|w52u5guv++@@@##@@@@@@+...",
" ...+@#@@@@@@@@@@++tuugoejjo4ngggjl!^n[ju7tuujs@@@@@@@@@@#@+... ",
"$  +@@@@@###@@@@@++swugkmtwp|4gupu^^44|ujij4ggp@@@@@###@@@@@+  $",
"..+@@@@@####@@@@+++tuggsmsjepsjkutp4|r[vthwguuv+@@@@####@@@@@+..",
"...+@##@###@@@@++@@vtvgo2ks2e[vpppsxk[mxs:jjjtx++@@@@###@@@@+...",
"  +@@##@@@@@@@@@+@@mstjkheoim7ke|soe227ee_vtxse+@@@@@@@@@@@@@+  ",
" ...+@@@@##@@@@@+@@kxtvmhms:m:2eokmih2:oe_svvk2+@@@@@##@##@+... ",
"...+@@@@@###@@+++++eoxx2:2m7okpeppkkee72m_oxxem+++@@###@##@@+...",
"..+@@##@@###@##@@@@7mee7:7772ee2memmm7i72/mmm2i@@##@###@@@@@@+..",
"   +@###@@@@@##@@@flaal6s:h2kpvjjjttkk7iifa51a55@##@@@@@@@@@+   ",
"    +@##@@@@@@@@@@xvjuju:::i2xxssxxoem:_:kjujtxo@@@@@@@@@@@+    ",
"..+@@@@@@@##@@@##@mxvvtjipvttjtuuuu4jvvskotvvxom#@@@##@@@##@@+..",
"...+@@@@#@###@###@2eoxssmjujggugfwwugugut2xxxem7##@###@#@##@+...",
" ...+@@@@@###@###@72meoohmeeoomxssxmoeommioem27:##@###@@@@@+... ",
"  +@@@###@@##@@@@@ii2mmm(i:722h2mm2h2i77i:m77ii:@@@##@@@##@@@+  ",
".. +@@###@@@@@@@@@@@@@@@@@@@@@@@@@@@@@@@@@@@@@@@@@@@@@@###@@+ ..",
"..  +@@@@@@@@@@@@##@@@##@@@@@@@@@##@@@##@@@@@@@@@##@@@####@+  ..",
"...+@@##@#@@##@@###@@@##@#@@##@@###@@@##@#@@##@@###@@@###@@@+...",
"     +##@@@@##@@##@@@@@@@@@@##@@##@@@@@@@@@@##@@##@@@@@@@@+     ",
"$   +@@@+@@+@@+@@@+@@+@@+@@+@@+@@@+@@+@@+@@+@@+@@@+@@+@@@@@+   $",
"$$ +@ @+ ++ +@ +@+ @+ @+ ++ +@ +@+ @+ @+ ++ +@ +@+ @+ @++@ @+ $$",
"      +      +  +  +  +      +  +  +  +      +  +  +  +  +      ",
"    .   ..    ..        ..    ..        ..    ..        ..      ",
"   ..  ...    ...      ...    ...      ...    ...      ... .    ",
"..  .  ..  ..  ..      ..  ..  ..      ..  ..  ..      ..  .. ..",
".      .  ...   .  ..  .  ...   .  ..  .  ...   .  ..  .   ..  ."};
