/* XPM */
static char * jungle tileset_xpm[] = {
"64 64 6 1",
" 	c #336547",
".	c #579945",
"+	c #182C3B",
"@	c #204042",
"#	c #275348",
"$	c #A2C758",
" ... .  .. .. .     ..  .. .. .     ..  .. .. .     ..    . ... ",
"...    ... ...  ... ... .. ...  ... ... .. ...  ... ... .  . ...",
".. .  ...   .. ...   .. .   .. ...   .. .   .. ...   .. .. .. ..",
".  .. ..     . ..     .      . ..     .      . ..     . .. ..   ",
"..  . . +   +++.  +  +  +   +++.  +  +  +   +++.  +  +   .  .   ",
"... + +@@+ +@@@+ +@ +@ +@+ +@@@+ +@ +@ +@+ +@@@+ +@ +@ +@+ + ...",
"...+@@@@@@@@@@@@@@@@@@@@@@@@@@@@@@@@@@@@@@@@@@@@@@@@@@@@@@@@+...",
" ...+@#@@@@##@@@@@@###@@@@@##@@@@@@###@@@@##@@@@@@@##@@@@#@+... ",
"$  +@@@@@@###@###@@###@@@@###@###@@###@@@@###@@###@###@@@@@@+  $",
"..+@@@@@@@###@###@@##@@##@###@###@@##@@##@@##@@###@###@@@@@@@+..",
"...+@##@#@##@@@##@@@@@###@##@@@##@@@@@###@@@@@@##@@@##@#@@@@+...",
"  +@@##@@@@@@@@@@@##@@##@@@@@@@@@@##@@##@@@###@@@@@@@@@@@@@@@+  ",
" ...+@@@@@@@@##@@@##@@@@@@@@@@@@@@##@@@@@@####@@@##@@@@@##@+... ",
"...+@@@@@###@##@@@@@@@@@@@@@@@@+@@@@@@@@@@###@@@@##@###@##@@+...",
"..+@@##@@###@@+++++@@+@@+@@++++++@@+@@@@@@+@@++@@@@@###@@@@@@+..",
"   +@###@##@@@@@+@@+++@@++++@@@++++++@@+++++++++@@@@@##@@@@@+   ",
"    +@##@@@@@@@@+@@@++++++++@@@+++++++++++++@@++@@@@@@@@@@@+    ",
"..+@@@@@###@@@@++@@@++++++++@@+++@@++@@+@+++@@+++@@@@###@##@@+..",
"...+@@@@####@@@@++++++++@@@++++++@@@+@@+++++++++@@@@####@##@+...",
" ...+@@@@###@@@@@+++@@@+@@@++@@+++@@+++++@@++++@@@@@###@@@@+... ",
"  +@@@##@@@@@@@@@+++@@@++@@++@@++++++++++@@@+++@@@@@@@@@##@@@+  ",
".. +@@##@@##@@@+++++@@+++++++++++++++@++++@@+++++@@@##@@##@@+ ..",
"...+@@@@@@###@@@@++++++++++++++++++++++++++++++@@@@###@@@@@@+...",
" ...+@#@@@@##@@@@@+@@@+++++++++++++++++++@@@++@@@@@##@@@@#@+... ",
"$  +@@@@##@@@@@@@@+@@@+++++++++++++++++++@@@++@@@@@@@@##@@@@+  $",
"..+@@@@@###@@@@@@++++++++++++++++++++++++@@++++@@@@@@###@@@@@+..",
"...+@##@###@##@+++++++@++++++++++++++++++++++++++@##@###@@@@+...",
"  +@@##@@@@@##@@@++@@+++++++++++++++++++@@++@@+@@@##@@@@@@@@@+  ",
" ...+@@@@@@@@@@@@++@@+++++++++++++++++++@@+@@@+@@@@@@@@@##@+... ",
"...+@@@@@###@@@@+++++++++++++++++++++++++++@@+++@@@@###@##@@+...",
"..+@@##@@###@@++++++++@@++++++++++++++++++++++++++@@###@@@@@@+..",
"   +@###@##@@@@@+@@+++@@++++++++++++++++++++@@@+@@@@@##@@@@@+   ",
"    +@##@@@@@@@@+@@@+++++++++++++++++++++@++@@@+@@@@@@@@@@@+    ",
"..+@@@@@###@@@@++@@@++++++++++++++++++++++++@@+++@@@@###@##@@+..",
"...+@@@@####@@@@++++++++++++++++++++++++++++++++@@@@####@##@+...",
" ...+@@@@###@@@@@+++@@@++++++++++++++++++@@++@+@@@@@###@@@@+... ",
"  +@@@##@@@@@@@@@+++@@@++++++++++++++++++@@+@@+@@@@@@@@@##@@@+  ",
".. +@@##@@##@@@+++++@@++++++++++++++++++++++@@+++@@@##@@##@@+ ..",
"...+@@@@@@##@@@+++++++++++++++@@++++++++++++@@+++@@@##@@@@@@+...",
" ...+@#@@@@@@@@@@++@@@+++@@+++@@++++@@+++@@+@@+@@@@@@@@@@#@+... ",
"$  +@@@@@###@@@@@++@@@+++@@+++++++++@@@++@@++++@@@@@###@@@@@+  $",
"..+@@@@@####@@@@+++++++++@@++++++@@++@@++@@++@@+@@@@####@@@@@+..",
"...+@##@###@@@@++@@@++++++++@@+++@@+++++++++@@@++@@@@###@@@@+...",
"  +@@##@@@@@@@@@+@@@++++++++@@@+++++++++++++@@++@@@@@@@@@@@@@+  ",
" ...+@@@@##@@@@@+@@+++@@++++@@@++++++@@+@@++++++@@@@@##@##@+... ",
"...+@@@@@###@@+++++@@+@@+@@++++++@@+@@@@@@+@@+++++@@###@##@@+...",
"..+@@##@@###@##@@@@@@@@@@@@@@@@+@@@@@@@@@@@@@@@@@##@###@@@@@@+..",
"   +@###@@@@@##@@@##@@@@@@@@@@@@@@##@@@@@@@@##@@@##@@@@@@@@@+   ",
"    +@##@@@@@@@@@@##@@##@@@@@@@@@@##@@####@@##@@@@@@@@@@@@@+    ",
"..+@@@@@@@##@@@##@@@@@###@##@@@##@@@@@####@@@@@##@@@##@@@##@@+..",
"...+@@@@#@###@###@@##@@##@###@###@@##@@##@@##@@###@###@#@##@+...",
" ...+@@@@@###@###@@###@@@@###@###@@###@@@@###@@###@###@@@@@+... ",
"  +@@@###@@##@@@@@@###@@@@@##@@@@@@###@@@@###@@@@@@##@@@##@@@+  ",
".. +@@###@@@@@@@@@@@@@@@@@@@@@@@@@@@@@@@@@@@@@@@@@@@@@@###@@+ ..",
"..  +@@@@@@@@@@@@##@@@##@@@@@@@@@##@@@##@@@@@@@@@##@@@####@+  ..",
"...+@@##@#@@##@@###@@@##@#@@##@@###@@@##@#@@##@@###@@@###@@@+...",
"     +##@@@@##@@##@@@@@@@@@@##@@##@@@@@@@@@@##@@##@@@@@@@@+     ",
"$   +@@@+@@+@@+@@@+@@+@@+@@+@@+@@@+@@+@@+@@+@@+@@@+@@+@@@@@+   $",
"$$ +@ @+ ++ +@ +@+ @+ @+ ++ +@ +@+ @+ @+ ++ +@ +@+ @+ @++@ @+ $$",
"      +      +  +  +  +      +  +  +  +      +  +  +  +  +      ",
"    .   ..    ..        ..    ..        ..    ..        ..      ",
"   ..  ...    ...      ...    ...      ...    ...      ... .    ",
"..  .  ..  ..  ..      ..  ..  ..      ..  ..  ..      ..  .. ..",
".      .  ...   .  ..  .  ...   .  ..  .  ...   .  ..  .   ..  ."};
