/* XPM */
static char * player_xpm[] = {
"64 64 531 2",
"  	c #C0D470",
". 	c #A4C263",
"+ 	c #473F34",
"@ 	c #403532",
"# 	c #413633",
"$ 	c #423734",
"% 	c #453835",
"& 	c #5F6243",
"* 	c #493F39",
"= 	c #544742",
"- 	c #564A45",
"; 	c #584B44",
"> 	c #5C4F4B",
", 	c #5F524D",
"' 	c #5A4D48",
") 	c #504640",
"! 	c #453D35",
"~ 	c #4C413B",
"{ 	c #625550",
"] 	c #645753",
"^ 	c #72665F",
"/ 	c #6B5F56",
"( 	c #80716A",
"_ 	c #71655E",
": 	c #7B8151",
"< 	c #A0712A",
"[ 	c #9E6D2C",
"} 	c #463B38",
"| 	c #966E35",
"1 	c #554844",
"2 	c #675A53",
"3 	c #61544F",
"4 	c #61544D",
"5 	c #4E413D",
"6 	c #BCD06E",
"7 	c #AF7D2A",
"8 	c #B07E29",
"9 	c #AD7B27",
"0 	c #A3583B",
"a 	c #9D6D27",
"b 	c #875919",
"c 	c #99671D",
"d 	c #443734",
"e 	c #433933",
"f 	c #423935",
"g 	c #44352F",
"h 	c #B5C769",
"i 	c #A7732A",
"j 	c #B6852B",
"k 	c #B68529",
"l 	c #B07E2B",
"m 	c #9D413E",
"n 	c #9C6B29",
"o 	c #906627",
"p 	c #5E3C0F",
"q 	c #5C3C17",
"r 	c #603C0D",
"s 	c #A0722D",
"t 	c #976828",
"u 	c #885C24",
"v 	c #B9CC6C",
"w 	c #9E6E2A",
"x 	c #B4822A",
"y 	c #A86734",
"z 	c #A24F39",
"A 	c #95662B",
"B 	c #D2D0C3",
"C 	c #ECEEE2",
"D 	c #1F201B",
"E 	c #E6E5DA",
"F 	c #9D7538",
"G 	c #A5742A",
"H 	c #A17227",
"I 	c #996829",
"J 	c #1C1C1A",
"K 	c #A7B961",
"L 	c #BFD36F",
"M 	c #A4752A",
"N 	c #B78728",
"O 	c #BE624D",
"P 	c #986929",
"Q 	c #936429",
"R 	c #ECEFE0",
"S 	c #EEEFE5",
"T 	c #DCDCCF",
"U 	c #A47328",
"V 	c #AA7A26",
"W 	c #AC7928",
"X 	c #967543",
"Y 	c #B0C266",
"Z 	c #9F6F29",
"` 	c #B2703B",
" .	c #D57E5B",
"..	c #9A6A28",
"+.	c #956629",
"@.	c #EAEEE1",
"#.	c #E9EBDF",
"$.	c #A37428",
"%.	c #AE7C28",
"&.	c #B18028",
"*.	c #AA7A28",
"=.	c #9E6B2B",
"-.	c #BED16F",
";.	c #986728",
">.	c #D67F5D",
",.	c #D67E5F",
"'.	c #A47528",
").	c #9A6C27",
"!.	c #9D6A29",
"~.	c #AD7A29",
"{.	c #B48328",
"].	c #96692D",
"^.	c #917D45",
"/.	c #D27A5A",
"(.	c #B58429",
"_.	c #A07128",
":.	c #9E6E28",
"<.	c #A87728",
"[.	c #B38129",
"}.	c #B7872A",
"|.	c #B07F27",
"1.	c #BACD6C",
"2.	c #92622B",
"3.	c #A0682E",
"4.	c #D48559",
"5.	c #9A6C29",
"6.	c #A5762B",
"7.	c #B1802A",
"8.	c #A3732A",
"9.	c #9D6D29",
"0.	c #AE7D2C",
"a.	c #B78329",
"b.	c #A9762A",
"c.	c #966B2E",
"d.	c #906327",
"e.	c #BE6450",
"f.	c #AA792C",
"g.	c #9D6C2B",
"h.	c #B89D64",
"i.	c #B79A62",
"j.	c #B5985B",
"k.	c #B68E43",
"l.	c #B88E3F",
"m.	c #B0883F",
"n.	c #A07B3C",
"o.	c #907B45",
"p.	c #BFD370",
"q.	c #956926",
"r.	c #B8882B",
"s.	c #986A27",
"t.	c #996B26",
"u.	c #996A2A",
"v.	c #CCB57F",
"w.	c #D4BD87",
"x.	c #D2B984",
"y.	c #C7B179",
"z.	c #BEA66A",
"A.	c #C4A76A",
"B.	c #C5AB6B",
"C.	c #BDA66E",
"D.	c #AB975E",
"E.	c #917944",
"F.	c #926229",
"G.	c #9E672E",
"H.	c #BA892A",
"I.	c #CFB064",
"J.	c #C39F62",
"K.	c #956727",
"L.	c #BEAC73",
"M.	c #9F8752",
"N.	c #97824E",
"O.	c #BBA46C",
"P.	c #CAB37B",
"Q.	c #D4BE83",
"R.	c #DCC68D",
"S.	c #D9C28C",
"T.	c #BDAB74",
"U.	c #302D17",
"V.	c #A9B961",
"W.	c #976629",
"X.	c #A4722A",
"Y.	c #B88829",
"Z.	c #B1822B",
"`.	c #CCAC67",
" +	c #C3A166",
".+	c #9FAF5C",
"++	c #91672A",
"@+	c #9D8651",
"#+	c #2D2C21",
"$+	c #2D2A22",
"%+	c #A08C55",
"&+	c #CDB682",
"*+	c #DFC792",
"=+	c #E7D09A",
"-+	c #E4CD98",
";+	c #D1B984",
">+	c #665B3D",
",+	c #8E7847",
"'+	c #BED26F",
")+	c #BA852A",
"!+	c #B69339",
"~+	c #A89C4C",
"{+	c #A17229",
"]+	c #B88927",
"^+	c #D2B068",
"/+	c #C6A565",
"(+	c #9AAB59",
"_+	c #97682A",
":+	c #947D47",
"<+	c #272C1F",
"[+	c #423A24",
"}+	c #A48F59",
"|+	c #CEB87F",
"1+	c #E1CA94",
"2+	c #E8D19B",
"3+	c #D5BE88",
"4+	c #2D2B1A",
"5+	c #B8CB6B",
"6+	c #9A6C2C",
"7+	c #9F6F2B",
"8+	c #A9782B",
"9+	c #BB8B29",
"0+	c #C18E29",
"a+	c #BC8A29",
"b+	c #B58427",
"c+	c #A57727",
"d+	c #CEA55A",
"e+	c #C6A567",
"f+	c #9B854E",
"g+	c #292B1F",
"h+	c #292D23",
"i+	c #BAA56F",
"j+	c #DBC48E",
"k+	c #E3CC96",
"l+	c #E2CB95",
"m+	c #B7A26B",
"n+	c #937C46",
"o+	c #B3C568",
"p+	c #94652A",
"q+	c #A97829",
"r+	c #B4802B",
"s+	c #C08C27",
"t+	c #C38D29",
"u+	c #BB8928",
"v+	c #AF7D28",
"w+	c #AE7B2A",
"x+	c #A8772A",
"y+	c #ADC065",
"z+	c #AE975F",
"A+	c #98804B",
"B+	c #99824C",
"C+	c #B39F66",
"D+	c #BAA66D",
"E+	c #C4AD77",
"F+	c #CFB981",
"G+	c #D6BF8A",
"H+	c #D5BF86",
"I+	c #CBB47C",
"J+	c #B7A269",
"K+	c #957E48",
"L+	c #B0C366",
"M+	c #8F6101",
"N+	c #624518",
"O+	c #614317",
"P+	c #81591E",
"Q+	c #6F4F1A",
"R+	c #BA8A28",
"S+	c #BC8C2A",
"T+	c #BE8C28",
"U+	c #B3812B",
"V+	c #AF7C2C",
"W+	c #C3A46A",
"X+	c #BBA76E",
"Y+	c #B09961",
"Z+	c #A18A54",
"`+	c #B8A36B",
" @	c #B9A46E",
".@	c #BCA871",
"+@	c #A08953",
"@@	c #B2C467",
"#@	c #9D6C02",
"$@	c #92631A",
"%@	c #5E4317",
"&@	c #5C4415",
"*@	c #A3732C",
"=@	c #AA792A",
"-@	c #B17F2C",
";@	c #A77627",
">@	c #A2702A",
",@	c #BACE6C",
"'@	c #A48E56",
")@	c #C6AF79",
"!@	c #AC985F",
"~@	c #B8A36D",
"{@	c #B4A069",
"]@	c #CBB47E",
"^@	c #D3BC86",
"/@	c #936304",
"(@	c #926323",
"_@	c #9C6E2C",
":@	c #9C6F28",
"<@	c #73501F",
"[@	c #BA8729",
"}@	c #B78327",
"|@	c #A57428",
"1@	c #C9A664",
"2@	c #ADBF64",
"3@	c #A38C54",
"4@	c #CEB782",
"5@	c #D2BB85",
"6@	c #D8C08B",
"7@	c #DAC38D",
"8@	c #B09B64",
"9@	c #9E6C00",
"0@	c #875A02",
"a@	c #886538",
"b@	c #75501B",
"c@	c #C7A762",
"d@	c #C3A164",
"e@	c #A3B55E",
"f@	c #AFC166",
"g@	c #967F4C",
"h@	c #AB955D",
"i@	c #AE9761",
"j@	c #AA955F",
"k@	c #A9925C",
"l@	c #A08951",
"m@	c #927B45",
"n@	c #8C7851",
"o@	c #B1C467",
"p@	c #926200",
"q@	c #9EAF5B",
"r@	c #B6C96A",
"s@	c #9B6D29",
"t@	c #B9862A",
"u@	c #B88529",
"v@	c #B58228",
"w@	c #C8A865",
"x@	c #A3B45E",
"y@	c #7D6534",
"z@	c #61431B",
"A@	c #80815C",
"B@	c #89845D",
"C@	c #898053",
"D@	c #7B6E40",
"E@	c #8B8557",
"F@	c #99966E",
"G@	c #8F906D",
"H@	c #A48D63",
"I@	c #ABBD63",
"J@	c #826420",
"K@	c #B4C769",
"L@	c #BDD16E",
"M@	c #A9BB62",
"N@	c #B1C366",
"O@	c #816638",
"P@	c #A4A07F",
"Q@	c #E2DDC6",
"R@	c #E4DFC3",
"S@	c #62441C",
"T@	c #DFDAC0",
"U@	c #E1DCC3",
"V@	c #A08654",
"W@	c #966A00",
"X@	c #A2B35D",
"Y@	c #A07126",
"Z@	c #AB7B29",
"`@	c #C7A261",
" #	c #BF9F65",
".#	c #B3C668",
"+#	c #957E4A",
"@#	c #846A3A",
"##	c #8C7443",
"$#	c #98804D",
"%#	c #836A3C",
"&#	c #A38956",
"*#	c #BBCE6D",
"=#	c #8E5F04",
"-#	c #9A6A26",
";#	c #A77629",
">#	c #A97927",
",#	c #C5A464",
"'#	c #9CAD5A",
")#	c #BDD06E",
"!#	c #8D8551",
"~#	c #947F48",
"{#	c #9A834D",
"]#	c #9C854F",
"^#	c #99A958",
"/#	c #A4B55F",
"(#	c #BCD06D",
"_#	c #98A353",
":#	c #906329",
"<#	c #9F7027",
"[#	c #C1A064",
"}#	c #C39F66",
"|#	c #AABC63",
"1#	c #AEC065",
"2#	c #ADB259",
"3#	c #936427",
"4#	c #C19D62",
"5#	c #9AAA59",
"6#	c #956803",
"7#	c #ACBE64",
"8#	c #92612D",
"9#	c #BE8B2A",
"0#	c #C39E69",
"a#	c #946501",
"b#	c #90652D",
"c#	c #9C6B2C",
"d#	c #8B6028",
"e#	c #232828",
"f#	c #24292A",
"g#	c #A16F29",
"h#	c #996B28",
"i#	c #98692B",
"j#	c #98682D",
"k#	c #A67828",
"l#	c #835829",
"m#	c #9DAE5B",
"n#	c #2E2C2A",
"o#	c #2C2F29",
"p#	c #93662A",
"q#	c #95662D",
"r#	c #90622D",
"s#	c #8C5E27",
"t#	c #3B392A",
"u#	c #474533",
"v#	c #292929",
"w#	c #C1A266",
"x#	c #C4A267",
"y#	c #C5A466",
"z#	c #C5A368",
"A#	c #96642A",
"B#	c #875A29",
"C#	c #4E4630",
"D#	c #2A2B26",
"E#	c #A5B760",
"F#	c #835628",
"G#	c #7A5128",
"H#	c #7D733E",
"I#	c #9BAC59",
"J#	c #9FB05C",
"K#	c #A5B65F",
"L#	c #E8EEAA",
"M#	c #313728",
"N#	c #B2C568",
"O#	c #B8CC6B",
"P#	c #885C26",
"Q#	c #A2B35E",
"R#	c #896D3A",
"S#	c #7E522A",
"T#	c #9A6A2A",
"U#	c #A37426",
"V#	c #B1C367",
"W#	c #8C6129",
"X#	c #8A733E",
"Y#	c #9C8C46",
"Z#	c #9C6B27",
"`#	c #B9CD6C",
" $	c #A7792B",
".$	c #99AA58",
"+$	c #956329",
"@$	c #896236",
"#$	c #94944A",
"$$	c #897840",
"%$	c #BCCF6D",
"&$	c #97A154",
"*$	c #9F712A",
"=$	c #8F934B",
"-$	c #8F612C",
";$	c #A57B2C",
">$	c #8F612A",
",$	c #A67826",
"'$	c #8A6330",
")$	c #855928",
"!$	c #B0B75F",
"~$	c #91682F",
"{$	c #8E622A",
"]$	c #B5C869",
"^$	c #845827",
"/$	c #9A7234",
"($	c #544531",
"_$	c #594738",
":$	c #90632B",
"<$	c #996927",
"[$	c #A0702C",
"}$	c #38322B",
"|$	c #534238",
"1$	c #524736",
"2$	c #AC7E2C",
"3$	c #919F54",
"4$	c #8A9751",
"5$	c #4E4335",
"6$	c #6A523F",
"7$	c #61663E",
"8$	c #849150",
"9$	c #3F382F",
"0$	c #544435",
"a$	c #8C9A52",
"b$	c #4F4135",
"c$	c #604E3F",
"d$	c #3A352B",
"e$	c #644620",
"f$	c #5E4C3B",
"g$	c #473C2E",
"h$	c #37312A",
"i$	c #45392F",
"j$	c #655340",
"k$	c #97A757",
"l$	c #5C4A3C",
"m$	c #755D4A",
"n$	c #483D2F",
"o$	c #A8B961",
"p$	c #554538",
"q$	c #6B5543",
"r$	c #58493A",
"s$	c #B4C768",
"t$	c #52463A",
"u$	c #937259",
"v$	c #7E624B",
"w$	c #39342C",
"x$	c #5F4D3C",
"y$	c #8C6E56",
"z$	c #7B614C",
"A$	c #5B583D",
"B$	c #A9BA62",
"C$	c #816551",
"D$	c #9B7960",
"E$	c #9B7F68",
"F$	c #A1B25D",
"                                                                                                                                ",
"                                                                                                                                ",
"                                                                                                                                ",
"                                                                                                                                ",
"                                                                        . .     . .                                             ",
"                                                                        . .     . .                                             ",
"                                    . .     . .                             . .                                                 ",
"                                    . .     . .                             . .                                                 ",
"                                        . .                                 + @ # $ % &                                         ",
"                                        . .                               # * = - ; > , ' )                                     ",
"                                                                        ! ~ ' { ] ^ / ( _ ^ :                                   ",
"                                                                        < [ % } | 1 - 2 3 4 5 6                                 ",
"                                                                    7 8 9 0 a b c d @ e f # g h                                 ",
"                                                                  i j k l m n o p q r s < n t u v                               ",
"                                                                  w 8 x y z A B C D E F G H I J K                               ",
"                                                                L n M N O P Q B R S T U V W < X Y                               ",
"                                                                L P Z `  ...+.+.@.#.t $.%.&.*.=.v                               ",
"                                                                -.;.< >.,.$.'.M ).!.w H ~.{.x G ].                              ",
"                                                                ^.t < /.w *.{.(.l _.:.< <.[.}.|.Z 1.    . .     . .             ",
"                                                                2.;.3.4.5.6.7.x 7 8.9.Z $.0.j a.b.c.    . .     . .             ",
"            . .     . .                                         d.;.e.f.[.g.$.<.G 9.n h.i.j.k.l.m.n.o.p.    . .                 ",
"            . .     . .                                         d.q.b.8 }.r.s.t.u.+.v.w.x.y.z.A.B.C.D.E.L   . .                 ",
"                . .                                             F.G.8 }.H.}.I.J.+.K.L.M.N.O.P.Q.R.S.T.U.V.                      ",
"                . .                                           W.X.7 (.Y.N Z.`. +.+++@+#+$+%+&+*+=+-+;+>+,+'+                    ",
"                                        (.)+!+              ~+{+7 (.]+H.k ^+/+(+v _+:+<+[+}+|+1+2+=+3+#+4+5+                    ",
"                              A 6+7+8+[.9+0+0+a+b+p.      '.c+7.Y.H.H.N (.d+e+K   f+E.g+h+i+v.j+k+l+w.m+n+o+                    ",
"                            p+).Z _.q+r+a+s+t+0+u+x v+%.w+%.8 [.(.b+k k [.x+/+y+. z+A+B+C+D+E+F+G+H+I+J+K+L+                    ",
"                          M++.9.N+O+P+Q+a.R+S+T+u+}.U+8 8 v+w+w+%.8 [.x V+M /+W+. X+Y+Z+J+`+ @i+.@.@.@J++@@@                    ",
"                        #@$@P a %@&@H *@=@-@b+N Y.N a.7.l w+q+x+q+*.W *.;@>@/+ +,@'@)@`+!@J+`+ @ @~@J+{@]@^@'+                  ",
"                        /@(@I a _@:@<@_.$.x+w+[.N [@}.}@|.~.q+|@$.$.$.8.H w 1@ +2@1.3@X+4@5@^@G+6@7@S.w.]@8@Y                   ",
"                      9@0@a@P a b@w w Z < $.q+l b+[@[@k x v+*.|@{+_.< < Z Z c@d@e@  f@g@Z+h@i@D.j@k@l@A+m@n@o@                  ",
"                      p@q@r@P a s@w w w Z < |@~.{.t@N u@v@8 *.|@{+< Z :.w w w@ +x@  '+y@z@A@B@C@D@E@F@G@H@I@L                   ",
"                      J@K@L@+.9.w w w w Z < $.q+w+U+v@{.[.8 =@|@$.{+Z w w :@w@ +M@    N@O@P@Q@R@S@T@U@V@x@p.                    ",
"                    W@X@L L p+9.w w w w w Z Y@M q+~.l 7.l ~.{+'.~.Z@$.7+w `@e+ #.#    '++#:+@###$#%#&#q@*#                      ",
"                    =#o@    Q -#9.w w w w Z < {+$.;#>#*.>#<.Z x+(.}.-@M w ,# +'#)#      1.!#~#{#]#^#/#(#                        ",
"                    _#6     :#+.u.:.{+$.Z w <#< < H $.$.$.$.Z *.H.u+k q+n [#}#M@          L@Y |#1#v p.                          ",
"                  2#/#      *#3#u.< *.{.<.7+w Z Z < _.Y@_._.Z V H.a+k x+I 4#5#1.                                                ",
"                  6#7#        8#P _.[.u+7 _.w w w Z Z Z Z Z Z Z@H.9#b+X.Q 0#/#                                                  ",
"                  a#K@        b#_+_.[.T+7.< c#w w w 9.9.n n Z Z@H.u+8 n F.d#o+                                                  ",
"                  e#f#p.      *#3#5.8 a+x g#K.5.c#h#u.i#j#d@Z =@t@(.k#p+l#m#L@                                                  ",
"                  n#e#o#        :#u.%.R+&.g#+.Q p+p#q# + + +Z <.7.~.!.r#s#|#                                                    ",
"                L t#u#v#5+      v +.U &.9 g.+.w#x#y#/+/+/+z#7+$.q+_.A#B#t.r@                                                    ",
"                L@C#D#E#1.        _+9.$.$.P F#G#H#I#'#J#K#Y n < _.;.F#Q M .#            L#L#    L#L#                            ",
"                p.r@M#N#          O#s.<#Z Q F#P#Q#)#L@L     t < 9.R#S#T#U#o+            L#L#    L#L#                            ",
"                    V#L             P '.<.F.W#X#5+          Y#v+Z#x@`#..q@'+                L#L#                                ",
"                                  p. $< T#.$..q@'+          (#Z@+$.#L@+./#                  L#L#                                ",
"                                    >#M @$y+5.#$L           '+w $$%$p.:#&$                                                      ",
"                                    n *$=$'+-$;$'+          '+Z .+L   >$,$L                                                     ",
"                                    5+9.'$'+)$W %$          !$< ~$L {$c#k#]$                                                    ",
"                                    '+n 8.6 ^$;@Y           I < i#6 %$/$($_$L@                                                  ",
"                                    :$<$[$o@}$|$1$L         n 2$i#3$4$}$5$6$7$                                                  ",
"                                    8$9$0$a$}$b$c$]$        d$e$f$g$v h$i$j$k$L@                                                ",
"                L#L#    L#L#        }$l$m$n$5+o$7#(#        }$p$q$r$V#s$7#2@K@p.                                                ",
"                L#L#    L#L#        t$m$u$v$O#              w$x$y$z$A$                                                          ",
"                    L#L#            -.2@e@B$L@              N#C$D$E$F$p.                                                        ",
"                    L#L#                                    L r@1#V#)#                                                          ",
"                                                                                                                                ",
"                                                                                                                                ",
"                                                                                                                                ",
"                                                                                                                                ",
"                                                                                                                                ",
"                                                                                                                                ",
"                                                                                                                                ",
"                                                                                                                                "};
