/* XPM */
static char * wall_xpm[] = {
"64 64 7 1",
" 	c #C0D470",
".	c #AA7959",
"+	c #A4C263",
"@	c #B78A62",
"#	c #E8CFA6",
"$	c #C49A6C",
"%	c #E8EEAA",
"                            ........                            ",
"                            ........                            ",
"                            ........                            ",
"                            ........                            ",
"                            ........++  ++                      ",
"                            ........++  ++                      ",
"                  ++  ++    ........  ++                        ",
"                  ++  ++    ........  ++                        ",
"                    ++  @@@@@@@@@@@@@@@@                        ",
"                    ++  @@@@@@@@@@@@@@@@                        ",
"                        @@@@@@@@@@@@@@@@                        ",
"                        @@@@@@@@@@@@@@@@                        ",
"                    @@@@################@@@@                    ",
"                    @@@@################@@@@                    ",
"                    @@@@################@@@@                    ",
"                    @@@@################@@@@                    ",
"                    @@@@################@@@@                    ",
"                    @@@@################@@@@                    ",
"                    @@@@################@@@@        ++  ++      ",
"                    @@@@################@@@@        ++  ++      ",
"$$$$$$$$$$$$$$$$@@@@....$$$$########$$$$....@@@@$$$$$$$$$$$$$$$$",
"$$$$$$$$$$$$$$$$@@@@....$$$$########$$$$....@@@@$$$$$$$$$$$$$$$$",
"$$$$$$$$$$$$$$$$@@@@....$$$$########$$$$....@@@@$$$$$$$$$$$$$$$$",
"$$$$$$$$$$$$$$$$@@@@....$$$$########$$$$....@@@@$$$$$$$$$$$$$$$$",
"........................$$$$$$$$$$$$$$$$........................",
"........................$$$$$$$$$$$$$$$$........................",
"........................$$$$$$$$$$$$$$$$........................",
"........................$$$$$$$$$$$$$$$$........................",
"                    ....$$$$$$$$$$$$$$$$....                    ",
"                    ....$$$$$$$$$$$$$$$$....                    ",
"                    ....$$$$$$$$$$$$$$$$....                    ",
"                    ....$$$$$$$$$$$$$$$$....                    ",
"$$$$$$$$$$$$$$$$@@@@....$$$$........$$$$....@@@@$$$$$$$$$$$$$$$$",
"$$$$$$$$$$$$$$$$@@@@....$$$$........$$$$....@@@@$$$$$$$$$$$$$$$$",
"$$$$$$$$$$$$$$$$@@@@....$$$$........$$$$....@@@@$$$$$$$$$$$$$$$$",
"$$$$$$$$$$$$$$$$@@@@....$$$$........$$$$....@@@@$$$$$$$$$$$$$$$$",
"........................$$$$........$$$$........................",
"........................$$$$........$$$$........................",
"........................$$$$........$$$$........................",
"........................$$$$........$$$$........................",
"........................@@@@........@@@@........................",
"........................@@@@........@@@@........................",
"........................@@@@........@@@@........................",
"........................@@@@........@@@@........................",
"                    ....@@@@........@@@@....  %%                ",
"                    ....@@@@........@@@@....  %%                ",
"                    ....@@@@........@@@@....                    ",
"                    ....@@@@........@@@@....                    ",
"                        @@@@........@@@@                        ",
"                        @@@@........@@@@                        ",
"                        @@@@........@@@@                        ",
"                        @@@@........@@@@                        ",
"        %%  %%              ........                            ",
"        %%  %%              ........                            ",
"          %%                ........                            ",
"          %%                ........                            ",
"                            ........                            ",
"                            ........                            ",
"                            ........                            ",
"                            ........                            ",
"                            ........                            ",
"                            ........                            ",
"                            ........                            ",
"                            ........                            "};
